<svg xmlns="http://www.w3.org/2000/svg" xmlns:xlink="http://www.w3.org/1999/xlink" width="500" zoomAndPan="magnify" viewBox="0 0 375 374.999991" height="500" preserveAspectRatio="xMidYMid meet" version="1.0"><defs><g/><clipPath id="69e3e04454"><path d="M 78.359375 90 L 104 90 L 104 93 L 78.359375 93 Z M 78.359375 90 " clip-rule="nonzero"/></clipPath><clipPath id="c40acc797b"><path d="M 104 9.289062 L 209 9.289062 L 209 117 L 104 117 Z M 104 9.289062 " clip-rule="nonzero"/></clipPath><clipPath id="283c116aaa"><path d="M 210 75 L 296.609375 75 L 296.609375 361.039062 L 210 361.039062 Z M 210 75 " clip-rule="nonzero"/></clipPath><clipPath id="2596433606"><rect x="0" width="195" y="0" height="62"/></clipPath><clipPath id="db513e96ba"><rect x="0" width="191" y="0" height="21"/></clipPath></defs><g clip-path="url(#69e3e04454)"><path fill="#f95c4b" d="M 103.148438 90.289062 L 78.359375 92.558594 L 103.148438 92.382812 Z M 103.148438 90.289062 " fill-opacity="1" fill-rule="nonzero"/></g><path fill="#f95c4b" d="M 115.832031 89.242188 L 115.832031 92.414062 L 196.558594 91.917969 L 196.5 81.851562 Z M 115.832031 89.242188 " fill-opacity="1" fill-rule="nonzero"/><g clip-path="url(#c40acc797b)"><path fill="#f95c4b" d="M 205.898438 107.308594 C 205.867188 95.261719 205.722656 54.738281 205.898438 50.289062 C 206.015625 47.378906 204.296875 34.257812 193.910156 23.464844 C 184.953125 14.15625 172.382812 9.445312 156.558594 9.445312 C 109.109375 9.445312 106.839844 52.933594 106.839844 53.457031 L 106.839844 107.277344 C 105.414062 108.210938 104.457031 109.839844 104.457031 111.671875 C 104.457031 114.578125 106.8125 116.9375 109.722656 116.9375 C 112.628906 116.9375 114.988281 114.578125 114.988281 111.671875 C 114.988281 109.546875 113.734375 107.742188 111.902344 106.898438 L 111.902344 53.546875 C 111.960938 51.945312 113.941406 14.476562 156.585938 14.476562 C 170.988281 14.476562 182.332031 18.664062 190.304688 26.957031 C 198.710938 35.683594 200.980469 46.972656 200.863281 50.085938 C 200.691406 54.621094 200.808594 94.304688 200.835938 106.898438 C 199.03125 107.742188 197.753906 109.546875 197.753906 111.671875 C 197.753906 114.578125 200.109375 116.9375 203.019531 116.9375 C 205.925781 116.9375 208.285156 114.578125 208.285156 111.671875 C 208.285156 109.839844 207.324219 108.238281 205.898438 107.308594 Z M 205.898438 107.308594 " fill-opacity="1" fill-rule="nonzero"/></g><g clip-path="url(#283c116aaa)"><path fill="#f95c4b" d="M 274.351562 81.96875 L 270.945312 75.160156 L 269.550781 75.277344 L 240.835938 77.894531 L 210.058594 80.71875 L 210.144531 91.832031 L 249.769531 91.597656 C 318.511719 207.148438 242.175781 357.929688 240.515625 361.1875 C 320.984375 247.644531 298.058594 120.804688 274.351562 81.96875 Z M 274.351562 81.96875 " fill-opacity="1" fill-rule="nonzero"/></g><g transform="matrix(1, 0, 0, 1, 60, 151)"><g clip-path="url(#2596433606)"><g fill="#000000" fill-opacity="1"><g transform="translate(1.516346, 48.479094)"><g><path d="M 35.0625 0 L 29.765625 -24.171875 L 19.578125 2 L 9.34375 -24.171875 L 4.09375 0 L 0.5 0 L 8.4375 -36.21875 L 19.578125 -7.140625 L 30.71875 -36.21875 L 38.609375 0 Z M 35.0625 0 "/></g></g></g><g fill="#000000" fill-opacity="1"><g transform="translate(40.626061, 48.479094)"><g><path d="M 25.21875 -11.484375 L 25.21875 -9.640625 L 5.890625 -9.640625 C 6.222656 -7.742188 7.140625 -6.195312 8.640625 -5 C 10.171875 -3.757812 11.867188 -3.140625 13.734375 -3.140625 C 15.003906 -3.140625 16.222656 -3.441406 17.390625 -4.046875 C 18.515625 -4.609375 19.460938 -5.40625 20.234375 -6.4375 L 24.234375 -6.4375 C 23.296875 -4.34375 21.894531 -2.695312 20.03125 -1.5 C 18.132812 -0.269531 16.21875 0.34375 14.28125 0.34375 C 12.320312 0.34375 10.660156 0.046875 9.296875 -0.546875 C 7.890625 -1.148438 6.671875 -1.96875 5.640625 -3 C 3.378906 -5.195312 2.25 -7.894531 2.25 -11.09375 C 2.25 -14.25 3.378906 -16.960938 5.640625 -19.234375 C 7.867188 -21.460938 10.566406 -22.578125 13.734375 -22.578125 C 16.796875 -22.578125 19.476562 -21.492188 21.78125 -19.328125 C 24.070312 -17.128906 25.21875 -14.515625 25.21875 -11.484375 Z M 21.53125 -12.640625 C 21.132812 -14.503906 20.203125 -16.050781 18.734375 -17.28125 C 17.265625 -18.476562 15.597656 -19.078125 13.734375 -19.078125 C 10.867188 -19.078125 8.625 -17.796875 7 -15.234375 C 6.5 -14.429688 6.144531 -13.566406 5.9375 -12.640625 Z M 21.53125 -12.640625 "/></g></g></g><g fill="#000000" fill-opacity="1"><g transform="translate(67.848031, 48.479094)"><g><path d="M 15.03125 -17.4375 C 14.238281 -18.164062 13.375 -18.53125 12.4375 -18.53125 C 11.539062 -18.53125 10.773438 -18.28125 10.140625 -17.78125 C 9.472656 -17.25 8.921875 -16.617188 8.484375 -15.890625 C 7.660156 -14.421875 7.25 -12.785156 7.25 -10.984375 L 7.25 0 L 3.75 0 L 3.75 -21.984375 L 7.25 -21.984375 L 7.25 -17.4375 L 7.390625 -18.328125 C 8.554688 -21.054688 10.375 -22.421875 12.84375 -22.421875 C 13.601562 -22.421875 14.332031 -22.273438 15.03125 -21.984375 Z M 15.03125 -17.4375 "/></g></g></g><g fill="#000000" fill-opacity="1"><g transform="translate(83.382036, 48.479094)"><g><path d="M 24.28125 -14.09375 L 20.484375 -14.09375 C 19.878906 -15.488281 18.945312 -16.617188 17.6875 -17.484375 C 16.414062 -18.347656 15.132812 -18.78125 13.84375 -18.78125 C 12.539062 -18.78125 11.421875 -18.582031 10.484375 -18.1875 C 9.554688 -17.75 8.757812 -17.179688 8.09375 -16.484375 C 6.59375 -14.921875 5.84375 -13.085938 5.84375 -10.984375 C 5.84375 -8.859375 6.59375 -7.03125 8.09375 -5.5 C 9.5625 -3.925781 11.359375 -3.140625 13.484375 -3.140625 C 14.878906 -3.140625 16.179688 -3.507812 17.390625 -4.25 C 18.546875 -4.976562 19.457031 -5.957031 20.125 -7.1875 L 24.078125 -7.1875 C 22.847656 -3.65625 20.46875 -1.289062 16.9375 -0.09375 C 15.832031 0.300781 14.582031 0.5 13.1875 0.5 C 11.789062 0.5 10.410156 0.179688 9.046875 -0.453125 C 7.679688 -1.046875 6.5 -1.878906 5.5 -2.953125 C 3.332031 -5.210938 2.25 -7.890625 2.25 -10.984375 C 2.25 -14.117188 3.332031 -16.800781 5.5 -19.03125 C 7.695312 -21.289062 10.359375 -22.421875 13.484375 -22.421875 C 16.015625 -22.421875 18.296875 -21.640625 20.328125 -20.078125 C 22.265625 -18.578125 23.582031 -16.582031 24.28125 -14.09375 Z M 24.28125 -14.09375 "/></g></g></g><g fill="#000000" fill-opacity="1"><g transform="translate(109.405232, 48.479094)"><g><path d="M 21.234375 -10.984375 C 21.234375 -13.117188 20.5 -14.984375 19.03125 -16.578125 C 17.53125 -18.179688 15.679688 -18.984375 13.484375 -18.984375 C 11.285156 -18.984375 9.457031 -18.179688 8 -16.578125 C 6.5 -14.984375 5.75 -13.117188 5.75 -10.984375 C 5.75 -8.859375 6.5 -6.992188 8 -5.390625 C 9.457031 -3.796875 11.285156 -3 13.484375 -3 C 15.679688 -3 17.53125 -3.796875 19.03125 -5.390625 C 20.5 -6.992188 21.234375 -8.859375 21.234375 -10.984375 Z M 24.734375 0 L 21.234375 0 L 21.234375 -3.75 C 21.035156 -3.476562 20.832031 -3.226562 20.625 -3 C 18.53125 -0.664062 15.96875 0.5 12.9375 0.5 C 9.90625 0.5 7.359375 -0.664062 5.296875 -3 C 3.265625 -5.257812 2.25 -7.921875 2.25 -10.984375 C 2.25 -14.046875 3.265625 -16.710938 5.296875 -18.984375 C 7.359375 -21.316406 9.90625 -22.484375 12.9375 -22.484375 C 15.96875 -22.484375 18.53125 -21.316406 20.625 -18.984375 C 20.832031 -18.742188 21.035156 -18.492188 21.234375 -18.234375 L 21.234375 -21.984375 L 24.734375 -21.984375 Z M 24.734375 0 "/></g></g></g><g fill="#000000" fill-opacity="1"><g transform="translate(137.875912, 48.479094)"><g><path d="M 21.234375 -10.984375 C 21.234375 -13.117188 20.5 -14.984375 19.03125 -16.578125 C 17.53125 -18.179688 15.679688 -18.984375 13.484375 -18.984375 C 11.285156 -18.984375 9.457031 -18.179688 8 -16.578125 C 6.5 -14.984375 5.75 -13.117188 5.75 -10.984375 C 5.75 -8.859375 6.5 -6.992188 8 -5.390625 C 9.457031 -3.796875 11.285156 -3 13.484375 -3 C 15.679688 -3 17.53125 -3.796875 19.03125 -5.390625 C 20.5 -6.992188 21.234375 -8.859375 21.234375 -10.984375 Z M 24.734375 0 L 21.234375 0 L 21.234375 -3.75 C 21.035156 -3.476562 20.832031 -3.226562 20.625 -3 C 18.53125 -0.664062 15.96875 0.5 12.9375 0.5 C 9.90625 0.5 7.359375 -0.664062 5.296875 -3 C 3.265625 -5.257812 2.25 -7.921875 2.25 -10.984375 C 2.25 -14.046875 3.265625 -16.710938 5.296875 -18.984375 C 7.359375 -21.316406 9.90625 -22.484375 12.9375 -22.484375 C 15.96875 -22.484375 18.53125 -21.316406 20.625 -18.984375 C 20.832031 -18.742188 21.035156 -18.492188 21.234375 -18.234375 L 21.234375 -37.46875 L 24.734375 -37.46875 Z M 24.734375 0 "/></g></g></g><g fill="#000000" fill-opacity="1"><g transform="translate(166.346592, 48.479094)"><g><path d="M 21.734375 -11.09375 C 21.734375 -13.289062 20.945312 -15.171875 19.375 -16.734375 C 17.8125 -18.296875 15.929688 -19.078125 13.734375 -19.078125 C 11.535156 -19.078125 9.65625 -18.296875 8.09375 -16.734375 C 6.53125 -15.171875 5.75 -13.289062 5.75 -11.09375 C 5.75 -8.925781 6.53125 -7.0625 8.09375 -5.5 C 9.65625 -3.925781 11.535156 -3.140625 13.734375 -3.140625 C 15.929688 -3.140625 17.8125 -3.925781 19.375 -5.5 C 20.945312 -7.0625 21.734375 -8.925781 21.734375 -11.09375 Z M 25.21875 -11.09375 C 25.21875 -7.894531 24.101562 -5.195312 21.875 -3 C 19.582031 -0.769531 16.867188 0.34375 13.734375 0.34375 C 10.609375 0.34375 7.910156 -0.769531 5.640625 -3 C 3.378906 -5.195312 2.25 -7.894531 2.25 -11.09375 C 2.25 -14.25 3.378906 -16.960938 5.640625 -19.234375 C 7.867188 -21.460938 10.566406 -22.578125 13.734375 -22.578125 C 16.898438 -22.578125 19.613281 -21.460938 21.875 -19.234375 C 24.101562 -16.960938 25.21875 -14.25 25.21875 -11.09375 Z M 25.21875 -11.09375 "/></g></g></g></g></g><g transform="matrix(1, 0, 0, 1, 72, 216)"><g clip-path="url(#db513e96ba)"><g fill="#f95c4b" fill-opacity="1"><g transform="translate(0.925375, 15.198071)"><g><path d="M 9.453125 -5.515625 C 9.453125 -6.078125 9.300781 -6.601562 9 -7.09375 C 8.695312 -7.582031 8.300781 -7.976562 7.8125 -8.28125 C 7.320312 -8.582031 6.789062 -8.734375 6.21875 -8.734375 C 5.65625 -8.734375 5.125 -8.582031 4.625 -8.28125 C 4.132812 -7.976562 3.738281 -7.582031 3.4375 -7.09375 C 3.132812 -6.601562 2.984375 -6.078125 2.984375 -5.515625 C 2.984375 -4.953125 3.132812 -4.421875 3.4375 -3.921875 C 3.738281 -3.429688 4.132812 -3.03125 4.625 -2.71875 C 5.125 -2.414062 5.65625 -2.265625 6.21875 -2.265625 C 6.789062 -2.265625 7.320312 -2.414062 7.8125 -2.71875 C 8.300781 -3.03125 8.695312 -3.429688 9 -3.921875 C 9.300781 -4.421875 9.453125 -4.953125 9.453125 -5.515625 Z M 11.875 -5.5 C 11.875 -4.738281 11.722656 -4.015625 11.421875 -3.328125 C 11.117188 -2.648438 10.707031 -2.050781 10.1875 -1.53125 C 9.664062 -1.007812 9.066406 -0.597656 8.390625 -0.296875 C 7.710938 0.00390625 6.988281 0.15625 6.21875 0.15625 C 5.46875 0.15625 4.75 0.00390625 4.0625 -0.296875 C 3.375 -0.597656 2.769531 -1.007812 2.25 -1.53125 C 1.726562 -2.050781 1.316406 -2.648438 1.015625 -3.328125 C 0.710938 -4.015625 0.5625 -4.738281 0.5625 -5.5 C 0.5625 -6.257812 0.710938 -6.976562 1.015625 -7.65625 C 1.316406 -8.332031 1.726562 -8.929688 2.25 -9.453125 C 2.769531 -9.984375 3.375 -10.394531 4.0625 -10.6875 C 4.75 -10.988281 5.46875 -11.140625 6.21875 -11.140625 C 6.988281 -11.140625 7.710938 -10.988281 8.390625 -10.6875 C 9.066406 -10.394531 9.664062 -9.984375 10.1875 -9.453125 C 10.707031 -8.929688 11.117188 -8.332031 11.421875 -7.65625 C 11.722656 -6.976562 11.875 -6.257812 11.875 -5.5 Z M 11.875 -5.5 "/></g></g></g><g fill="#f95c4b" fill-opacity="1"><g transform="translate(21.447197, 15.198071)"><g><path d="M 9.59375 0 L 7.171875 0 L 3.390625 -6.84375 L 3.390625 0 L 0.96875 0 L 0.96875 -10.984375 L 3.390625 -10.984375 L 7.171875 -4.140625 L 7.171875 -10.984375 L 9.59375 -10.984375 Z M 9.59375 0 "/></g></g></g><g fill="#f95c4b" fill-opacity="1"><g transform="translate(40.095484, 15.198071)"><g><path d="M 0.96875 0 L 0.96875 -10.984375 L 3.390625 -10.984375 L 3.390625 -2.203125 L 7.328125 -2.203125 L 7.328125 0 Z M 0.96875 0 "/></g></g></g><g fill="#f95c4b" fill-opacity="1"><g transform="translate(56.078826, 15.198071)"><g><path d="M 3.390625 0 L 0.96875 0 L 0.96875 -10.984375 L 3.390625 -10.984375 Z M 3.390625 0 "/></g></g></g><g fill="#f95c4b" fill-opacity="1"><g transform="translate(68.525064, 15.198071)"><g><path d="M 9.59375 0 L 7.171875 0 L 3.390625 -6.84375 L 3.390625 0 L 0.96875 0 L 0.96875 -10.984375 L 3.390625 -10.984375 L 7.171875 -4.140625 L 7.171875 -10.984375 L 9.59375 -10.984375 Z M 9.59375 0 "/></g></g></g><g fill="#f95c4b" fill-opacity="1"><g transform="translate(87.173351, 15.198071)"><g><path d="M 7.328125 -2.203125 L 7.328125 0 L 0.96875 0 L 0.96875 -10.984375 L 7.328125 -10.984375 L 7.328125 -8.78125 L 3.390625 -8.78125 L 3.390625 -6.609375 L 7.171875 -6.609375 L 7.171875 -4.40625 L 3.390625 -4.40625 L 3.390625 -2.203125 Z M 7.328125 -2.203125 "/></g></g></g><g fill="#f95c4b" fill-opacity="1"><g transform="translate(103.560473, 15.198071)"><g/></g></g><g fill="#f95c4b" fill-opacity="1"><g transform="translate(115.683699, 15.198071)"><g><path d="M 5.234375 -1.71875 C 5.492188 -1.71875 5.773438 -1.753906 6.078125 -1.828125 C 6.378906 -1.910156 6.640625 -2.046875 6.859375 -2.234375 C 7.078125 -2.421875 7.1875 -2.675781 7.1875 -3 C 7.1875 -3.300781 7.070312 -3.539062 6.84375 -3.71875 C 6.613281 -3.90625 6.304688 -4.054688 5.921875 -4.171875 C 5.546875 -4.296875 5.132812 -4.410156 4.6875 -4.515625 C 4.238281 -4.617188 3.789062 -4.742188 3.34375 -4.890625 C 2.894531 -5.035156 2.476562 -5.222656 2.09375 -5.453125 C 1.71875 -5.691406 1.414062 -6 1.1875 -6.375 C 0.957031 -6.757812 0.84375 -7.238281 0.84375 -7.8125 C 0.84375 -8.382812 0.957031 -8.878906 1.1875 -9.296875 C 1.425781 -9.710938 1.742188 -10.054688 2.140625 -10.328125 C 2.535156 -10.609375 2.976562 -10.8125 3.46875 -10.9375 C 3.957031 -11.070312 4.445312 -11.140625 4.9375 -11.140625 C 5.695312 -11.140625 6.40625 -11.019531 7.0625 -10.78125 C 7.71875 -10.550781 8.253906 -10.179688 8.671875 -9.671875 C 9.085938 -9.160156 9.304688 -8.484375 9.328125 -7.640625 L 6.984375 -7.640625 C 6.910156 -8.210938 6.707031 -8.609375 6.375 -8.828125 C 6.039062 -9.046875 5.570312 -9.15625 4.96875 -9.15625 C 4.75 -9.15625 4.507812 -9.117188 4.25 -9.046875 C 4 -8.972656 3.785156 -8.851562 3.609375 -8.6875 C 3.429688 -8.519531 3.34375 -8.296875 3.34375 -8.015625 C 3.34375 -7.734375 3.457031 -7.507812 3.6875 -7.34375 C 3.914062 -7.1875 4.21875 -7.050781 4.59375 -6.9375 C 4.976562 -6.832031 5.394531 -6.734375 5.84375 -6.640625 C 6.300781 -6.546875 6.753906 -6.425781 7.203125 -6.28125 C 7.648438 -6.144531 8.0625 -5.953125 8.4375 -5.703125 C 8.8125 -5.460938 9.113281 -5.148438 9.34375 -4.765625 C 9.570312 -4.378906 9.6875 -3.882812 9.6875 -3.28125 C 9.6875 -2.632812 9.554688 -2.082031 9.296875 -1.625 C 9.046875 -1.175781 8.703125 -0.8125 8.265625 -0.53125 C 7.828125 -0.257812 7.335938 -0.0625 6.796875 0.0625 C 6.253906 0.195312 5.703125 0.265625 5.140625 0.265625 C 4.328125 0.265625 3.566406 0.128906 2.859375 -0.140625 C 2.160156 -0.421875 1.59375 -0.847656 1.15625 -1.421875 C 0.71875 -1.992188 0.492188 -2.726562 0.484375 -3.625 L 2.9375 -3.625 C 2.96875 -2.96875 3.207031 -2.484375 3.65625 -2.171875 C 4.113281 -1.867188 4.640625 -1.71875 5.234375 -1.71875 Z M 5.234375 -1.71875 "/></g></g></g><g fill="#f95c4b" fill-opacity="1"><g transform="translate(133.944355, 15.198071)"><g><path d="M 7.015625 -10.984375 L 9.59375 -10.984375 L 9.59375 0 L 7.015625 0 L 7.015625 -4.40625 L 3.390625 -4.40625 L 3.390625 0 L 0.96875 0 L 0.96875 -10.984375 L 3.390625 -10.984375 L 3.390625 -6.609375 L 7.015625 -6.609375 Z M 7.015625 -10.984375 "/></g></g></g><g fill="#f95c4b" fill-opacity="1"><g transform="translate(152.592642, 15.198071)"><g><path d="M 9.453125 -5.515625 C 9.453125 -6.078125 9.300781 -6.601562 9 -7.09375 C 8.695312 -7.582031 8.300781 -7.976562 7.8125 -8.28125 C 7.320312 -8.582031 6.789062 -8.734375 6.21875 -8.734375 C 5.65625 -8.734375 5.125 -8.582031 4.625 -8.28125 C 4.132812 -7.976562 3.738281 -7.582031 3.4375 -7.09375 C 3.132812 -6.601562 2.984375 -6.078125 2.984375 -5.515625 C 2.984375 -4.953125 3.132812 -4.421875 3.4375 -3.921875 C 3.738281 -3.429688 4.132812 -3.03125 4.625 -2.71875 C 5.125 -2.414062 5.65625 -2.265625 6.21875 -2.265625 C 6.789062 -2.265625 7.320312 -2.414062 7.8125 -2.71875 C 8.300781 -3.03125 8.695312 -3.429688 9 -3.921875 C 9.300781 -4.421875 9.453125 -4.953125 9.453125 -5.515625 Z M 11.875 -5.5 C 11.875 -4.738281 11.722656 -4.015625 11.421875 -3.328125 C 11.117188 -2.648438 10.707031 -2.050781 10.1875 -1.53125 C 9.664062 -1.007812 9.066406 -0.597656 8.390625 -0.296875 C 7.710938 0.00390625 6.988281 0.15625 6.21875 0.15625 C 5.46875 0.15625 4.75 0.00390625 4.0625 -0.296875 C 3.375 -0.597656 2.769531 -1.007812 2.25 -1.53125 C 1.726562 -2.050781 1.316406 -2.648438 1.015625 -3.328125 C 0.710938 -4.015625 0.5625 -4.738281 0.5625 -5.5 C 0.5625 -6.257812 0.710938 -6.976562 1.015625 -7.65625 C 1.316406 -8.332031 1.726562 -8.929688 2.25 -9.453125 C 2.769531 -9.984375 3.375 -10.394531 4.0625 -10.6875 C 4.75 -10.988281 5.46875 -11.140625 6.21875 -11.140625 C 6.988281 -11.140625 7.710938 -10.988281 8.390625 -10.6875 C 9.066406 -10.394531 9.664062 -9.984375 10.1875 -9.453125 C 10.707031 -8.929688 11.117188 -8.332031 11.421875 -7.65625 C 11.722656 -6.976562 11.875 -6.257812 11.875 -5.5 Z M 11.875 -5.5 "/></g></g></g><g fill="#f95c4b" fill-opacity="1"><g transform="translate(173.114464, 15.198071)"><g><path d="M 3.390625 -3.921875 L 3.390625 0 L 0.96875 0 L 0.96875 -10.984375 L 5.09375 -10.984375 C 5.6875 -10.984375 6.238281 -10.832031 6.75 -10.53125 C 7.257812 -10.238281 7.671875 -9.828125 7.984375 -9.296875 C 8.296875 -8.773438 8.453125 -8.164062 8.453125 -7.46875 C 8.453125 -6.71875 8.296875 -6.078125 7.984375 -5.546875 C 7.671875 -5.023438 7.257812 -4.625 6.75 -4.34375 C 6.238281 -4.0625 5.6875 -3.921875 5.09375 -3.921875 Z M 4.6875 -9.078125 L 3.390625 -9.078125 L 3.390625 -5.828125 L 4.6875 -5.828125 C 5.039062 -5.828125 5.367188 -5.96875 5.671875 -6.25 C 5.984375 -6.53125 6.140625 -6.9375 6.140625 -7.46875 C 6.140625 -7.96875 5.984375 -8.359375 5.671875 -8.640625 C 5.367188 -8.929688 5.039062 -9.078125 4.6875 -9.078125 Z M 4.6875 -9.078125 "/></g></g></g></g></g></svg>